<?xml version="1.0" encoding="UTF-8"?>
<svg id="Layer_2" data-name="Layer 2" xmlns="http://www.w3.org/2000/svg" width="924.62" height="924.62" xmlns:xlink="http://www.w3.org/1999/xlink" viewBox="0 0 924.62 924.62">
  <defs>
    <style>
      .cls-1 {
        fill: none;
      }

      .cls-2 {
        fill: #fff;
      }

      .cls-3 {
        clip-path: url(#clippath);
      }
    </style>
    <clipPath id="clippath">
      <rect class="cls-1" width="924.62" height="924.62"/>
    </clipPath>
  </defs>
  <g id="Layer_1-2" data-name="Layer 1">
    <g class="cls-3">
      <path class="cls-2" d="M823.68,715.3h-41.3v-130.27h-17.67v-22.4h41.5v130.27h17.47v22.4ZM797.71,841.12c-7.57,0-15.58-2.12-22.59-7.24-1-.56-1-1.34-.45-2.23l4.23-7.23c.56-1,1.22-1.11,2.22-.45,5.01,3.67,11.02,5.68,16.81,5.68s10.35-2.22,10.35-6.45c0-4.45-5.34-5.68-10.35-6.57-8.35-1.56-22.48-5.01-22.48-18.48,0-12.35,11.68-17.47,23.59-17.47,6.35,0,12.8,1.56,19.37,5.12.89.44,1.11,1.33.56,2.22l-4.23,7.12c-.56.78-1.33,1-2.22.56-4.12-2.22-9.12-3.67-14.14-3.67-6.57,0-10.13,2.45-10.13,6.12,0,4.57,5.01,5.68,12.36,7.12,9.12,1.67,20.7,4.57,20.7,17.37s-10.24,18.48-23.59,18.48M770.46,715.3h-40.07l-.41-9.25v-78.7h-17.05v-22.4h40.89v87.94h16.64v22.4ZM768.55,839.11c0,.89-.44,1.67-1.56,1.78-1.89.11-4.23.22-5.9.22-11.57,0-20.59-5.9-20.59-20.59v-50.87c0-1,.56-1.56,1.67-1.56h8.46c.89,0,1.56.56,1.67,1.45l1,13.36h11.91c1,0,1.67.56,1.67,1.55v8.13c0,1-.67,1.56-1.67,1.56h-11.8v25.49c0,6.12,3.11,9.68,8.79,9.68,1,0,2.78-.11,4.57-.22,1.11,0,1.78.56,1.78,1.56v8.46ZM729.26,814.85c0,1-.56,1.56-1.67,1.56h-33.84v3.11c0,6.79,4.68,10.24,11.8,10.24s11.58-2.34,15.69-5.12c.78-.56,1.67-.45,2.22.33l4.57,6.12c.67.78.56,1.67-.33,2.34-5.9,4.68-13.13,7.68-22.6,7.68-12.57,0-24.37-6.9-24.37-21.7v-15.81c0-16.36,12.24-22.82,24.49-22.82s24.04,6.45,24.04,22.82v11.24ZM664.13,714.28c-4.86,1.64-9.83,2.47-14.89,2.47-10.55,0-19.32-3.49-26.3-10.48-6.99-6.71-10.48-15-10.48-24.86,0-10.68,4.11-19.52,12.33-26.5,3.97-3.56,8.53-6.13,13.66-7.71,5.14-1.57,10.79-2.36,16.96-2.36,4.79,0,9.86.69,15.2,2.06,1.09.27,2.26.58,3.49.92,1.23.34,2.47.79,3.7,1.34v-12.74c0-2.74-.38-4.86-1.13-6.37-.76-1.5-1.75-2.67-2.98-3.49-1.64-1.1-3.69-1.95-6.16-2.57-2.46-.62-5.48-.92-9.04-.92-1.78,0-3.83.24-6.16.72-2.33.49-4.7,1.1-7.09,1.85-2.4.75-4.66,1.51-6.79,2.26-2.12.75-3.94,1.41-5.44,1.95l-7.4-18.29c4.79-1.92,8.9-3.46,12.33-4.62,3.42-1.17,7.05-2.23,10.89-3.19,3.83-.96,7.19-1.44,10.07-1.44,6.3,0,12.02.65,17.15,1.95,5.14,1.3,9.69,3.32,13.67,6.06,4.11,3.15,7.12,6.92,9.04,11.3,1.91,4.38,2.88,9.32,2.88,14.79v56.5h16.23v22.4h-40.07v-7.4c-4.25,2.6-8.8,4.73-13.67,6.37M669.05,838.11c0,1.11-.56,1.67-1.56,1.67h-9.68c-1,0-1.67-.56-1.67-1.67v-32.17c0-10.46-4.79-13.58-12.91-13.58-3.78,0-7.9.56-10.46,1.23v44.52c0,1.11-.56,1.67-1.67,1.67h-9.57c-1.11,0-1.67-.56-1.67-1.67v-50.98c0-.89.33-1.55,1.22-2,6.46-2.78,14.25-4.34,22.15-4.34,15.36,0,25.82,7.12,25.82,24.93v32.39ZM589.65,692.91v22.4h-43.77v-87.94h-18.49v-22.4h42.33v11.51c.55-.27,1.78-1.06,3.7-2.36,1.92-1.3,3.83-2.43,5.75-3.39,4.52-2.19,8.66-3.7,12.43-4.52,3.77-.82,8.05-1.16,12.84-1.03l10.27.21v21.57h-10.48c-6.57,0-12.02.75-16.33,2.26-4.32,1.51-7.77,3.43-10.38,5.75-2.47,2.19-4.38,4.79-5.75,7.81-1.37,3.01-2.05,7.4-2.05,13.15v36.98h19.93ZM581.8,836.1c0,17.14-7.79,25.94-24.82,25.94-9.46,0-16.03-2.23-21.81-7.01-.89-.67-.89-1.34-.33-2.23l4.79-6.79c.56-.89,1.33-1.11,2.12-.56,4.23,2.89,9.13,5.12,15.14,5.12,7.68,0,12.58-3.34,12.13-14.47-3.56,1.12-7.79,2.01-11.91,2.01-11.58,0-23.82-7.35-23.82-22.71v-31.72c0-1,.67-1.56,1.67-1.56h9.68c1,0,1.56.56,1.56,1.56v31.16c0,8.57,6.01,11.58,12.69,11.58,3.78.11,7.57-.89,10.01-2.23v-40.51c0-1,.56-1.56,1.67-1.56h9.57c1.12,0,1.67.56,1.67,1.56v52.42ZM521.81,816.63c0,16.92-10.91,24.49-25.6,24.49-7.24,0-15.81-1.56-22.37-4.01-1-.33-1.33-.89-1.33-1.89v-73.35c0-1.11.56-1.67,1.67-1.67h9.57c1.11,0,1.67.56,1.67,1.67v21.37c3.45-1.44,7.57-2.44,12.02-2.44,14.03,0,24.38,9.12,24.38,23.59v12.24ZM456.31,604.97h17.26v-21.58l23.83-.62v22.19h20.34v22.4h-20.34v63.28c0,2.19.21,3.57.62,4.11h1.03l18.7-3.08v22.6l-19.52,3.29c-3.84,0-7.3-.51-10.38-1.54-3.08-1.03-5.79-2.78-8.12-5.24-2.33-2.33-3.94-5.03-4.83-8.12-.89-3.08-1.34-6.4-1.34-9.96v-65.34h-17.26v-22.4ZM445.01,627.36h-16.85l-49.72,131.5h-23.22l18.7-52.6-32.26-78.9h-18.29v-22.4h34.11l5.14,13.36,23.22,56.92,18.08-47.88h-12.53v-22.4h53.63v22.4ZM326.66,715.3h-40.07v-7.4c-4.25,2.6-8.81,4.73-13.66,6.37-4.87,1.64-9.83,2.47-14.9,2.47-10.55,0-19.31-3.49-26.3-10.48-6.99-6.71-10.48-15-10.48-24.86,0-10.68,4.11-19.52,12.33-26.5,3.97-3.56,8.53-6.13,13.66-7.71,5.14-1.57,10.79-2.36,16.95-2.36,4.79,0,9.86.69,15.2,2.06,1.09.27,2.26.58,3.49.92,1.23.34,2.46.79,3.7,1.34v-12.74c0-2.74-.38-4.86-1.13-6.37-.76-1.5-1.75-2.67-2.98-3.49-1.64-1.1-3.7-1.95-6.16-2.57-2.47-.62-5.48-.92-9.04-.92-1.79,0-3.84.24-6.16.72-2.33.49-4.7,1.1-7.09,1.85-2.4.75-4.66,1.51-6.78,2.26-2.13.75-3.94,1.41-5.45,1.95l-7.4-18.29c4.79-1.92,8.9-3.46,12.33-4.62,3.42-1.17,7.05-2.23,10.89-3.19,3.83-.96,7.19-1.44,10.07-1.44,6.3,0,12.02.65,17.16,1.95,5.14,1.3,9.69,3.32,13.66,6.06,4.11,3.15,7.12,6.92,9.04,11.3,1.91,4.38,2.88,9.32,2.88,14.79v56.5h16.23v22.4ZM207.69,645.03c-4.8,4.39-10.27,7.6-16.44,9.66-6.16,2.06-12.94,3.08-20.34,3.08h-25.27v57.53h-43.15v-22.4h18.49v-107.87h-18.49v-22.4h66.37c7.81,0,14.97.99,21.47,2.98,6.5,1.99,12.22,5.17,17.16,9.55,4.93,4.39,8.56,9.49,10.89,15.31,2.33,5.82,3.49,12.43,3.49,19.83,0,6.99-1.17,13.43-3.49,19.31-2.33,5.89-5.89,11.03-10.68,15.41M236.31,77.96c21.28,0,38.53,16.84,38.53,37.62,0,15.74-9.91,29.21-23.97,34.82,15.53,103.08,104.7,182.36,212.04,182.36s196.43-79.2,212.03-182.21c-13.23-6.1-22.43-19.44-22.43-34.97,0-21.28,17.25-38.53,38.52-38.53s38.53,17.25,38.53,38.53c0,18-12.35,33.06-29.03,37.3-16.81,116.09-116.94,205.57-237.62,205.57s-221.53-90.15-237.78-206.87c-15.83-4.68-27.35-19.02-27.35-35.99,0-20.78,17.25-37.62,38.53-37.62M749.5,564.69c2.88,3.15,4.32,6.64,4.32,10.48,0,4.25-1.44,7.81-4.32,10.68-3.15,2.88-6.64,4.32-10.48,4.32s-7.33-1.44-10.48-4.32c-2.87-3.15-4.31-6.64-4.31-10.48,0-4.25,1.44-7.81,4.31-10.68,3.15-2.88,6.64-4.32,10.48-4.32s7.33,1.44,10.48,4.32M0,924.62h924.62V0H0v924.62Z"/>
      <path class="cls-2" d="M266.05,665.99c-3.84,0-7.03.45-9.55,1.34-2.54.89-4.56,2.09-6.06,3.6-3.43,3.01-5.14,6.78-5.14,11.3,0,3.42,1.3,6.51,3.9,9.25,1.23,1.23,2.74,2.19,4.52,2.88,1.77.68,4.04,1.03,6.78,1.03,4.52,0,9.38-1.3,14.59-3.9,4.38-2.19,8.22-4.93,11.51-8.22v-11.5c-2.88-1.51-5.69-2.74-8.42-3.7-3.7-1.37-7.74-2.05-12.12-2.05"/>
      <path class="cls-2" d="M190.64,591.2c-2.06-1.92-5-3.42-8.84-4.52-3.83-1.1-8.84-1.64-15-1.64h-21.17v50.34h21.17c5.62,0,10.3-.55,14.07-1.64,3.77-1.1,6.88-2.6,9.35-4.52,2.19-1.78,3.9-4.08,5.14-6.88,1.23-2.8,1.85-6.4,1.85-10.79,0-5.34-.62-9.62-1.85-12.84-1.23-3.22-2.81-5.72-4.73-7.5"/>
      <path class="cls-2" d="M657.25,665.99c-3.84,0-7.03.45-9.55,1.34-2.54.89-4.56,2.09-6.06,3.6-3.43,3.01-5.14,6.78-5.14,11.3,0,3.42,1.3,6.51,3.9,9.25,1.23,1.23,2.74,2.19,4.52,2.88,1.77.68,4.03,1.03,6.78,1.03,4.52,0,9.38-1.3,14.59-3.9,4.38-2.19,8.22-4.93,11.51-8.22v-11.5c-2.88-1.51-5.69-2.74-8.43-3.7-3.69-1.37-7.74-2.05-12.12-2.05"/>
      <path class="cls-2" d="M496.1,792.25c-4.23,0-7.9,1.11-10.68,2.89v32.84c2.67,1.11,6.68,1.56,10.46,1.56,8.01,0,12.8-3.34,12.8-12.8v-12.36c0-8.46-4.57-12.13-12.58-12.13"/>
      <path class="cls-2" d="M705.22,792.14c-6.57,0-11.47,3.12-11.47,11.35v2.89h22.93v-2.89c0-8.12-5.23-11.35-11.46-11.35"/>
    </g>
  </g>
</svg>